<svg width="167" height="37" viewBox="0 0 167 37" fill="none" xmlns="http://www.w3.org/2000/svg">
<rect x="1" y="1" width="165" height="30" stroke="#0074D9"/>
<path d="M14.5324 10.1L18.5124 21.64C19.0724 21.84 19.4658 22.0733 19.6924 22.34L19.4924 24H14.8124L14.6124 22.34C14.7724 22.1267 15.0924 21.9267 15.5724 21.74L15.0324 20.06H11.0324L10.5324 21.68C10.9991 21.8667 11.3458 22.0867 11.5724 22.34L11.3724 24H6.81242L6.61242 22.34C6.85242 22.0333 7.29909 21.78 7.95242 21.58L11.7924 10.1H14.5324ZM12.8724 12.9C12.8724 13.7133 12.7058 14.66 12.3724 15.74L11.5924 18.22H14.4524L13.6924 15.78C13.3858 14.8467 13.2124 14 13.1724 13.24L13.1524 12.9H12.8724ZM26.083 12.3C25.1764 12.3 24.4697 12.6467 23.963 13.34C23.4697 14.0333 23.223 15.24 23.223 16.96C23.223 20.2533 24.1297 21.9 25.943 21.9C26.663 21.9 27.303 21.7867 27.863 21.56V19.3C27.2497 19.1 26.8297 18.8533 26.603 18.56L26.803 16.98H31.483L31.683 18.56C31.5097 18.7733 31.1964 18.98 30.743 19.18V22.88C30.103 23.3467 29.3964 23.68 28.623 23.88C27.863 24.0667 26.9097 24.16 25.763 24.16C23.8564 24.16 22.4564 23.62 21.563 22.54C20.6697 21.4467 20.223 19.68 20.223 17.24C20.223 14.7867 20.7497 12.9733 21.803 11.8C22.8697 10.6267 24.323 10.04 26.163 10.04C28.0164 10.04 29.5297 10.46 30.703 11.3C30.703 11.38 30.703 11.5333 30.703 11.76C30.703 11.9867 30.6564 12.3733 30.563 12.92C30.4697 13.4667 30.3364 13.9133 30.163 14.26H28.323C28.123 13.8867 27.9897 13.3333 27.923 12.6C27.3497 12.4 26.7364 12.3 26.083 12.3ZM43.4854 14.24C43.4854 15.1467 43.1987 15.9067 42.6254 16.52C42.0654 17.1333 41.3587 17.6 40.5054 17.92C41.1721 18.2 41.6121 18.54 41.8254 18.94L43.2854 21.72C43.9121 21.9333 44.3387 22.18 44.5654 22.46L44.3654 24H40.9854L38.6854 19.1C38.4721 18.6067 38.2254 18.36 37.9454 18.36H36.6454V21.56C37.6187 21.7733 38.2254 22.0333 38.4654 22.34L38.2654 24H32.8654L32.6654 22.34C32.8387 22.1133 33.2054 21.8933 33.7654 21.68V12.54C33.2187 12.34 32.8521 12.1133 32.6654 11.86L32.8654 10.2H37.9654C39.8321 10.2267 41.2187 10.5267 42.1254 11.1C43.0321 11.6733 43.4854 12.72 43.4854 14.24ZM37.8254 12.38H36.6454V16.18H37.7854C38.6921 16.18 39.3654 16.0467 39.8054 15.78C40.2587 15.5 40.4854 15.0067 40.4854 14.3C40.4854 13.5933 40.2587 13.1 39.8054 12.82C39.3521 12.5267 38.6921 12.38 37.8254 12.38ZM52.384 10.1L56.364 21.64C56.924 21.84 57.3173 22.0733 57.544 22.34L57.344 24H52.664L52.464 22.34C52.624 22.1267 52.944 21.9267 53.424 21.74L52.884 20.06H48.884L48.384 21.68C48.8507 21.8667 49.1973 22.0867 49.424 22.34L49.224 24H44.664L44.464 22.34C44.704 22.0333 45.1507 21.78 45.804 21.58L49.644 10.1H52.384ZM50.724 12.9C50.724 13.7133 50.5573 14.66 50.224 15.74L49.444 18.22H52.304L51.544 15.78C51.2373 14.8467 51.064 14 51.024 13.24L51.004 12.9H50.724ZM65.3837 16.52L63.7037 24.1H60.6237L57.4237 12.54C56.877 12.34 56.5103 12.1133 56.3237 11.86L56.5237 10.2H61.1437L61.3437 11.86C61.117 12.1267 60.757 12.3467 60.2637 12.52L61.6837 18.42C61.897 19.2733 62.0637 20.12 62.1837 20.96L62.2237 21.3H62.5037C62.517 20.5133 62.6437 19.5667 62.8837 18.46L64.6837 10.34H67.7437L69.5437 18.42C69.757 19.3933 69.9037 20.24 69.9837 20.96L70.0237 21.32H70.3037C70.3303 20.5067 70.4903 19.5533 70.7837 18.46L72.3637 12.6C71.8037 12.4 71.417 12.1533 71.2037 11.86L71.4037 10.2H75.8237L76.0237 11.86C75.7703 12.18 75.3237 12.44 74.6837 12.64L71.3237 24.1H68.1837L66.5637 16.54C66.377 15.6333 66.237 14.7467 66.1437 13.88L66.1037 13.48H65.8237C65.7703 14.4 65.6237 15.4133 65.3837 16.52ZM82.4426 10.1L86.4226 21.64C86.9826 21.84 87.3759 22.0733 87.6026 22.34L87.4026 24H82.7226L82.5226 22.34C82.6826 22.1267 83.0026 21.9267 83.4826 21.74L82.9426 20.06H78.9426L78.4426 21.68C78.9092 21.8667 79.2559 22.0867 79.4826 22.34L79.2826 24H74.7226L74.5226 22.34C74.7626 22.0333 75.2092 21.78 75.8626 21.58L79.7026 10.1H82.4426ZM80.7826 12.9C80.7826 13.7133 80.6159 14.66 80.2826 15.74L79.5026 18.22H82.3626L81.6026 15.78C81.2959 14.8467 81.1226 14 81.0826 13.24L81.0626 12.9H80.7826ZM97.5332 24H88.3732L88.1732 22.34C88.3465 22.1133 88.7132 21.8933 89.2732 21.68V12.54C88.7265 12.34 88.3599 12.1133 88.1732 11.86L88.3732 10.2H93.0532L93.2532 11.86C93.0399 12.1133 92.6732 12.34 92.1532 12.54V21.82H95.3132C95.4865 21.1267 95.7332 20.6333 96.0532 20.34L97.5332 20.52V24ZM108.864 12.38C108.411 12.26 107.938 12.2 107.444 12.2C106.951 12.2 106.551 12.3267 106.244 12.58C105.951 12.82 105.804 13.1667 105.804 13.62C105.804 14.06 105.918 14.4067 106.144 14.66C106.371 14.9133 106.818 15.1333 107.484 15.32L109.264 15.84C110.224 16.12 110.984 16.56 111.544 17.16C112.118 17.7467 112.404 18.6133 112.404 19.76C112.404 21.12 111.911 22.1933 110.924 22.98C109.951 23.7667 108.738 24.16 107.284 24.16C106.484 24.16 105.658 24.06 104.804 23.86C103.964 23.6467 103.264 23.3533 102.704 22.98C102.704 22.9 102.704 22.7467 102.704 22.52C102.704 22.2933 102.751 21.9067 102.844 21.36C102.938 20.8133 103.071 20.3667 103.244 20.02H105.144C105.358 20.4333 105.484 20.9867 105.524 21.68C105.991 21.88 106.531 21.98 107.144 21.98C107.771 21.98 108.284 21.8333 108.684 21.54C109.084 21.2467 109.284 20.8267 109.284 20.28C109.284 20.0267 109.264 19.82 109.224 19.66C109.184 19.4867 109.058 19.3067 108.844 19.12C108.644 18.92 108.351 18.76 107.964 18.64L105.904 18.04C103.811 17.44 102.764 16.1067 102.764 14.04C102.764 12.8267 103.204 11.86 104.084 11.14C104.964 10.4067 106.111 10.04 107.524 10.04C108.951 10.04 110.344 10.36 111.704 11C111.704 11.08 111.704 11.2333 111.704 11.46C111.704 11.6867 111.658 12.0733 111.564 12.62C111.471 13.1667 111.338 13.6133 111.164 13.96H109.264C109.038 13.64 108.904 13.1133 108.864 12.38ZM124.186 10.22V13.08L122.926 13.24C122.753 13.1067 122.586 12.8267 122.426 12.4H120.026V21.68C120.56 21.8933 120.926 22.1133 121.126 22.34L120.926 24H116.246L116.046 22.34C116.22 22.1133 116.586 21.8933 117.146 21.68V12.4H114.746C114.586 12.8267 114.42 13.1067 114.246 13.24L112.986 13.08V10.22H124.186ZM130.336 24.16C128.443 24.16 127.023 23.6133 126.076 22.52C125.143 21.4267 124.676 19.66 124.676 17.22C124.676 14.7667 125.19 12.96 126.216 11.8C127.256 10.6267 128.73 10.04 130.636 10.04C132.556 10.04 133.983 10.56 134.916 11.6C135.863 12.64 136.336 14.38 136.336 16.82C136.336 19.26 135.81 21.0933 134.756 22.32C133.703 23.5467 132.23 24.16 130.336 24.16ZM128.396 13.34C127.916 14.0333 127.676 15.24 127.676 16.96C127.676 18.68 127.93 19.9333 128.436 20.72C128.943 21.5067 129.636 21.9 130.516 21.9C131.41 21.9 132.103 21.5333 132.596 20.8C133.09 20.0533 133.336 18.82 133.336 17.1C133.336 13.9 132.376 12.3 130.456 12.3C129.563 12.3 128.876 12.6467 128.396 13.34ZM148.388 14.24C148.388 15.1467 148.101 15.9067 147.528 16.52C146.968 17.1333 146.261 17.6 145.408 17.92C146.074 18.2 146.514 18.54 146.728 18.94L148.188 21.72C148.814 21.9333 149.241 22.18 149.468 22.46L149.268 24H145.888L143.588 19.1C143.374 18.6067 143.128 18.36 142.848 18.36H141.548V21.56C142.521 21.7733 143.128 22.0333 143.368 22.34L143.168 24H137.768L137.568 22.34C137.741 22.1133 138.108 21.8933 138.668 21.68V12.54C138.121 12.34 137.754 12.1133 137.568 11.86L137.768 10.2H142.868C144.734 10.2267 146.121 10.5267 147.028 11.1C147.934 11.6733 148.388 12.72 148.388 14.24ZM142.728 12.38H141.548V16.18H142.688C143.594 16.18 144.268 16.0467 144.708 15.78C145.161 15.5 145.388 15.0067 145.388 14.3C145.388 13.5933 145.161 13.1 144.708 12.82C144.254 12.5267 143.594 12.38 142.728 12.38ZM159.606 24H150.326L150.126 22.34C150.3 22.1133 150.666 21.8933 151.226 21.68V12.54C150.68 12.34 150.313 12.1133 150.126 11.86L150.326 10.2H159.446V13.68L157.966 13.86C157.66 13.5933 157.413 13.1 157.226 12.38H154.106V15.82H156.886C157.046 15.42 157.213 15.14 157.386 14.98L158.646 15.12V18.68L157.386 18.84C157.213 18.7067 157.046 18.4267 156.886 18H154.106V21.82H157.386C157.56 21.1267 157.806 20.6333 158.126 20.34L159.606 20.52V24Z" fill="#0074D9"/>
<rect x="1" y="31" width="165" height="5" fill="#0074D9" stroke="#0074D9"/>
</svg>
