<svg width="32" height="32" viewBox="0 0 32 32" fill="none" xmlns="http://www.w3.org/2000/svg">
<rect x="1" y="1" width="30" height="25" stroke="#0074D9"/>
<path d="M12.4738 7.1L16.4538 18.64C17.0138 18.84 17.4072 19.0733 17.6338 19.34L17.4338 21H12.7538L12.5538 19.34C12.7138 19.1267 13.0338 18.9267 13.5138 18.74L12.9738 17.06H8.97383L8.47383 18.68C8.94049 18.8667 9.28716 19.0867 9.51383 19.34L9.31383 21H4.75383L4.55383 19.34C4.79383 19.0333 5.24049 18.78 5.89383 18.58L9.73383 7.1H12.4738ZM10.8138 9.9C10.8138 10.7133 10.6472 11.66 10.3138 12.74L9.53383 15.22H12.3938L11.6338 12.78C11.3272 11.8467 11.1538 11 11.1138 10.24L11.0938 9.9H10.8138ZM24.3645 9.38C23.9111 9.26 23.4378 9.2 22.9445 9.2C22.4511 9.2 22.0511 9.32667 21.7445 9.58C21.4511 9.82 21.3045 10.1667 21.3045 10.62C21.3045 11.06 21.4178 11.4067 21.6445 11.66C21.8711 11.9133 22.3178 12.1333 22.9845 12.32L24.7645 12.84C25.7245 13.12 26.4845 13.56 27.0445 14.16C27.6178 14.7467 27.9045 15.6133 27.9045 16.76C27.9045 18.12 27.4111 19.1933 26.4245 19.98C25.4511 20.7667 24.2378 21.16 22.7845 21.16C21.9845 21.16 21.1578 21.06 20.3045 20.86C19.4645 20.6467 18.7645 20.3533 18.2045 19.98C18.2045 19.9 18.2045 19.7467 18.2045 19.52C18.2045 19.2933 18.2511 18.9067 18.3445 18.36C18.4378 17.8133 18.5711 17.3667 18.7445 17.02H20.6445C20.8578 17.4333 20.9845 17.9867 21.0245 18.68C21.4911 18.88 22.0311 18.98 22.6445 18.98C23.2711 18.98 23.7845 18.8333 24.1845 18.54C24.5845 18.2467 24.7845 17.8267 24.7845 17.28C24.7845 17.0267 24.7645 16.82 24.7245 16.66C24.6845 16.4867 24.5578 16.3067 24.3445 16.12C24.1445 15.92 23.8511 15.76 23.4645 15.64L21.4045 15.04C19.3111 14.44 18.2645 13.1067 18.2645 11.04C18.2645 9.82667 18.7045 8.86 19.5845 8.14C20.4645 7.40667 21.6111 7.04 23.0245 7.04C24.4511 7.04 25.8445 7.36 27.2045 8C27.2045 8.08 27.2045 8.23333 27.2045 8.46C27.2045 8.68667 27.1578 9.07333 27.0645 9.62C26.9711 10.1667 26.8378 10.6133 26.6645 10.96H24.7645C24.5378 10.64 24.4045 10.1133 24.3645 9.38Z" fill="#0074D9"/>
<rect x="1" y="26" width="30" height="5" fill="#0074D9" stroke="#0074D9"/>
</svg>
